<mxfile host="app.diagrams.net" modified="2024-01-22T08:37:46.338Z" agent="Mozilla/5.0 (Windows NT 10.0; WOW64) AppleWebKit/537.36 (KHTML, like Gecko) Chrome/86.0.4240.198 Safari/537.36" version="22.1.21" etag="lTj9k0DBP_gtnWW4Y0KO" type="github">
  <diagram name="第 1 页" id="yPxHdP31CilHvLU8h6nL">
    <mxGraphModel>
      <root>
        <mxCell id="0" />
        <mxCell id="1" parent="0" />
      </root>
    </mxGraphModel>
  </diagram>
</mxfile>
